#!OML:ASF H:\Terrain\Walking\May29\JustinRory\Justin.ASF
:FULLY-SPECIFIED
:DEGREES
529
root 7.83121 17.2354 -16.5648 1.91783 -18.1113 1.33783
lowerback 15.0902 3.83196 2.9351
upperback 1.53474 5.58278 0.667474
thorax -6.58846 2.64149 -2.07369
lowerneck -17.3901 -2.30688 -10.2322
upperneck 8.49045 -1.79328 8.34581
head 5.55553 -0.593619 4.15101
rclavicle -8.17005e-014 0
rhumerus -12.6091 -9.99667 -44.215
rradius 96.3897
rwrist -29.1053
rhand -24.7362 42.09
rfingers 7.12502
rthumb 1.76633 12.1176
lclavicle -8.17005e-014 0
lhumerus -41.0724 15.6834 69.7297
lradius 106.153
lwrist 11.9363
lhand -11.7624 29.8206
lfingers 7.12502
lthumb 14.2859 59.3092
rfemur -22.6681 -0.439435 16.4317
rtibia 39.3795
rfoot -12.5761 0.419742
rtoes 0.21077
lfemur -14.0424 14.5216 -18.5107
ltibia 34.2651
lfoot -18.776 10.7264
ltoes -12.2243
530
root 7.85782 17.247 -16.5538 1.97672 -19.1244 1.47398
lowerback 15.1304 4.12874 3.32679
upperback 1.29038 6.02593 0.32666
thorax -6.77178 2.83468 -2.75099
lowerneck -17.2668 -2.36141 -10.1908
upperneck 8.60906 -1.90678 8.44509
head 5.58486 -0.643262 4.16648
rclavicle 3.55825e-014 7.95139e-015
rhumerus -11.5346 -10.173 -44.2846
rradius 95.1607
rwrist -29.0015
rhand -24.8647 41.7246
rfingers 7.12502
rthumb 1.64226 11.7511
lclavicle 3.55825e-014 7.95139e-015
lhumerus -42.5931 16.0032 70.338
lradius 106.601
lwrist 11.9565
lhand -11.3204 29.6497
lfingers 7.12502
lthumb 14.7118 59.1077
rfemur -22.6676 0.00882549 16.2021
rtibia 38.8928
rfoot -12.2392 1.01944
rtoes 0.78202
lfemur -13.8593 14.7715 -18.8011
ltibia 33.9998
lfoot -18.7639 11.4571
ltoes -11.5853
531
root 7.88449 17.2608 -16.55 2.31578 -20.1808 1.15742
lowerback 14.9649 4.42389 4.12064
upperback 1.12255 6.53146 0.0976185
thorax -6.71174 3.05578 -3.51985
lowerneck -17.4747 -2.42152 -9.9077
upperneck 8.82735 -2.00611 8.16004
head 5.6905 -0.700379 4.01983
rclavicle -3.35946e-014 6.36111e-015
rhumerus -10.3945 -10.5641 -44.3795
rradius 94.0356
rwrist -28.8285
rhand -24.8329 41.5873
rfingers 7.12502
rthumb 1.67294 11.6142
lclavicle -3.35946e-014 6.36111e-015
lhumerus -43.8299 16.0962 70.891
lradius 106.967
lwrist 12.31
lhand -11.5785 29.2988
lfingers 7.12502
lthumb 14.4631 58.7748
rfemur -22.8443 0.749782 16.4237
rtibia 38.3975
rfoot -11.8614 1.46317
rtoes 1.9232
lfemur -14.0046 15.0665 -18.6327
ltibia 33.9683
lfoot -18.7823 11.9966
ltoes -10.2019
532
root 7.90849 17.271 -16.5605 2.98961 -21.2152 -0.0135718
lowerback 14.9551 4.65972 5.71831
upperback 0.913668 7.11186 0.0199435
thorax -6.67977 3.28828 -4.59633
lowerneck -17.5294 -2.44089 -9.70824
upperneck 8.84738 -2.08182 8.20948
head 5.71162 -0.725268 3.99609
rclavicle 1.28216e-014 1.27222e-014
rhumerus -9.46589 -10.9788 -44.4947
rradius 93.2262
rwrist -28.8037
rhand -25.2388 41.6118
rfingers 7.12502
rthumb 1.28095 11.6359
lclavicle 1.28216e-014 1.27222e-014
lhumerus -44.7344 16.6328 71.4209
lradius 107.172
lwrist 12.3841
lhand -11.9791 28.8682
lfingers 7.12502
lthumb 14.0771 58.3714
rfemur -23.1459 1.79655 17.5572
rtibia 37.9784
rfoot -11.5646 1.61041
rtoes 2.7682
lfemur -14.3116 15.5269 -17.5425
ltibia 34.0013
lfoot -18.7567 12.2264
ltoes -8.34558
533
root 7.92532 17.2726 -16.5628 3.02216 -22.1722 -0.164975
lowerback 15.0899 4.92889 6.24286
upperback 0.817422 7.55344 -0.195636
thorax -6.71145 3.48132 -5.2096
lowerneck -17.0453 -2.38105 -9.79019
upperneck 8.39796 -2.0588 8.61148
head 5.49593 -0.694517 4.13732
rclavicle -2.68359e-015 2.46493e-014
rhumerus -8.6255 -11.1487 -44.4861
rradius 92.6585
rwrist -28.9095
rhand -25.1256 40.9221
rfingers 7.12502
rthumb 1.3903 10.9469
lclavicle -2.68359e-015 2.46493e-014
lhumerus -45.5593 17.7419 72.0523
lradius 107.338
lwrist 11.8467
lhand -11.7097 28.2431
lfingers 7.12502
lthumb 14.3367 57.7281
rfemur -23.1456 2.61289 17.6297
rtibia 37.6239
rfoot -11.4936 1.95255
rtoes 3.90668
lfemur -14.1282 15.9715 -17.4417
ltibia 33.8511
lfoot -18.7756 12.5112
ltoes -6.8092
534
root 7.93619 17.2651 -16.5563 2.51952 -23.579 1.04342
lowerback 15.0215 5.41121 5.21361
upperback 0.831206 7.98127 -0.636347
thorax -6.67876 3.71897 -5.17763
lowerneck -16.9593 -2.25513 -9.65943
upperneck 8.30076 -1.91511 8.55594
head 5.43577 -0.62558 4.11054
rclavicle -3.27995e-015 -1.27222e-014
rhumerus -7.45949 -11.1775 -44.5749
rradius 92.0653
rwrist -28.8328
rhand -23.5394 40.3188
rfingers 7.12502
rthumb 2.92216 10.3591
lclavicle -3.27995e-015 -1.27222e-014
lhumerus -46.4851 18.5291 72.6196
lradius 107.527
lwrist 11.2431
lhand -11.4316 27.7687
lfingers 7.12502
lthumb 14.6047 57.2344
rfemur -23.2399 3.64843 16.3142
rtibia 37.39
rfoot -11.6254 2.33862
rtoes 3.75106
lfemur -13.7361 16.393 -18.777
ltibia 33.5145
lfoot -18.7824 13.3924
ltoes -6.11336
535
root 7.93816 17.2775 -16.5233 2.00376 -23.5113 2.14998
lowerback 14.5279 5.39274 4.57666
upperback 0.983227 7.79821 -0.991687
thorax -6.29677 3.66762 -5.10098
lowerneck -17.7253 -2.30496 -8.86318
upperneck 8.92004 -1.98523 7.46526
head 5.73933 -0.701942 3.62587
rclavicle -6.48038e-014 1.35174e-014
rhumerus -6.2841 -11.38 -44.6876
rradius 91.5682
rwrist -28.5041
rhand -23.9575 41.1326
rfingers 7.12502
rthumb 2.51842 11.1677
lclavicle -6.48038e-014 1.35174e-014
lhumerus -47.3043 19.0597 73.1911
lradius 107.696
lwrist 10.8086
lhand -11.4912 27.6563
lfingers 7.12502
lthumb 14.5473 57.1262
rfemur -22.7635 3.03709 15.1636
rtibia 37.2073
rfoot -12.172 2.834
rtoes 2.89815
lfemur -13.1706 16.3186 -19.9222
ltibia 33.0063
lfoot -18.8645 13.4978
ltoes -6.79837
536
root 7.93659 17.2838 -16.522 1.70381 -23.4265 2.86768
lowerback 14.4766 5.42716 4.1825
upperback 0.953964 7.76101 -1.26128
thorax -6.31739 3.65686 -5.15932
lowerneck -18.0626 -2.42425 -8.44202
upperneck 9.17849 -2.14709 6.8622
head 5.87685 -0.807798 3.34662
rclavicle 4.07509e-014 -2.38542e-014
rhumerus -5.58398 -11.6035 -44.6732
rradius 91.3186
rwrist -28.5209
rhand -24.2862 41.6187
rfingers 7.12502
rthumb 2.201 11.6503
lclavicle 4.07509e-014 -2.38542e-014
lhumerus -47.8792 19.7823 73.7207
lradius 107.837
lwrist 10.4153
lhand -11.1855 27.7189
lfingers 7.12502
lthumb 14.8418 57.1674
rfemur -22.5741 2.76533 14.4679
rtibia 37.0482
rfoot -12.5547 3.03648
rtoes 2.94334
lfemur -12.9333 16.3938 -20.6301
ltibia 32.6858
lfoot -19.0693 13.4027
ltoes -7.54705
537
root 7.92926 17.2719 -16.5403 1.69435 -23.3505 3.11118
lowerback 14.5576 5.46362 4.07994
upperback 0.741258 7.79056 -1.4382
thorax -6.57537 3.65754 -5.32195
lowerneck -17.4337 -2.39432 -8.78071
upperneck 8.69805 -2.13856 7.45116
head 5.63395 -0.778977 3.5899
rclavicle 5.96354e-014 -1.51076e-014
rhumerus -5.16215 -11.7034 -44.6461
rradius 91.1915
rwrist -28.8415
rhand -23.8952 40.5502
rfingers 7.12502
rthumb 2.57861 10.586
lclavicle 5.96354e-014 -1.51076e-014
lhumerus -48.4147 19.7293 74.1
lradius 107.883
lwrist 10.3542
lhand -11.2888 27.847
lfingers 7.12502
lthumb 14.7423 57.3027
rfemur -22.5748 2.8718 14.3
rtibia 36.811
rfoot -12.9656 2.85169
rtoes 3.36003
lfemur -13.1739 16.4498 -20.8449
ltibia 32.8769
lfoot -19.3094 13.2438
ltoes -7.51931
538
root 7.91215 17.2488 -16.5794 2.07828 -23.1357 2.77776
lowerback 14.5633 5.44279 4.26569
upperback 0.46484 7.80552 -1.40895
thorax -6.85381 3.6424 -5.41862
lowerneck -17.1404 -2.33815 -8.94002
upperneck 8.51022 -2.07983 7.73505
head 5.52783 -0.739246 3.71202
rclavicle 8.5378e-014 7.95139e-015
rhumerus -4.81889 -11.7832 -44.6115
rradius 91.2697
rwrist -28.9815
rhand -24.7785 41.3357
rfingers 7.12502
rthumb 1.72553 11.3629
lclavicle 8.5378e-014 7.95139e-015
lhumerus -48.8341 19.0747 74.4335
lradius 107.828
lwrist 10.7341
lhand -11.8001 27.6303
lfingers 7.12502
lthumb 14.2497 57.1214
rfemur -22.7288 3.29606 14.7939
rtibia 36.5497
rfoot -13.3628 2.03505
rtoes 2.63103
lfemur -13.93 16.5451 -20.4539
ltibia 33.4916
lfoot -19.3074 12.8665
ltoes -7.47414
539
root 7.88752 17.2232 -16.6642 3.29224 -22.8661 1.58929
lowerback 14.5352 5.40097 4.88447
upperback 0.000372361 7.89353 -1.09311
thorax -7.29306 3.63938 -5.47263
lowerneck -17.5936 -2.30847 -8.72546
upperneck 8.9074 -2.03194 7.45588
head 5.71654 -0.722695 3.59531
rclavicle -1.20364e-013 -4.77083e-015
rhumerus -4.56074 -11.9101 -44.5486
rradius 91.5904
rwrist -29.1645
rhand -26.381 43.9328
rfingers 7.12502
rthumb 0.177788 13.9531
lclavicle -1.20364e-013 -4.77083e-015
lhumerus -49.0078 18.7425 74.7998
lradius 107.795
lwrist 11.1856
lhand -11.5845 27.1285
lfingers 7.12502
lthumb 14.4574 56.6049
rfemur -23.7 4.22722 16.2202
rtibia 36.4436
rfoot -13.4521 0.590851
rtoes 1.42659
lfemur -15.4531 16.7947 -19.2568
ltibia 33.972
lfoot -18.8648 12.3574
ltoes -7.56552
540
root 7.88601 17.2172 -16.6863 3.70966 -22.2693 0.957425
lowerback 14.4865 5.2422 5.69594
upperback -0.116203 7.8332 -0.951237
thorax -7.31299 3.57968 -5.7587
lowerneck -17.9111 -2.18824 -8.02531
upperneck 9.12641 -1.93089 6.79319
head 5.81386 -0.695111 3.27834
rclavicle 1.77912e-014 -2.38542e-015
rhumerus -4.4539 -12.2559 -44.3966
rradius 92.0504
rwrist -29.3861
rhand -27.1513 45.5665
rfingers 7.12502
rthumb -0.566253 15.5875
lclavicle 1.77912e-014 -2.38542e-015
lhumerus -48.7681 18.386 75.4412
lradius 107.602
lwrist 11.3798
lhand -11.2258 26.9694
lfingers 7.12502
lthumb 14.803 56.4207
rfemur -23.8125 4.41963 16.79
rtibia 36.2936
rfoot -13.6415 -0.193862
rtoes 1.01444
lfemur -15.9714 15.7093 -18.7605
ltibia 34.1179
lfoot -18.7196 12.836
ltoes -6.77647
541
root 7.84643 17.2268 -16.649 2.41042 -22.0474 2.77099
lowerback 14.3563 5.41765 3.99754
upperback 0.200473 7.73608 -1.32929
thorax -7.07804 3.60493 -5.17212
lowerneck -18.4186 -2.17413 -8.36063
upperneck 9.62229 -1.83185 6.96016
head 6.05123 -0.639994 3.40307
rclavicle 2.33572e-014 -2.38542e-015
rhumerus -4.54168 -12.7654 -44.3546
rradius 92.7411
rwrist -29.3698
rhand -22.766 39.6182
rfingers 7.12502
rthumb 3.66903 9.67001
lclavicle 2.33572e-014 -2.38542e-015
lhumerus -48.2418 17.7708 75.8331
lradius 107.282
lwrist 11.5263
lhand -10.8341 27.2893
lfingers 7.12502
lthumb 15.1803 56.7125
rfemur -22.7836 4.12592 15.1355
rtibia 36.3912
rfoot -14.2617 -0.0454142
rtoes 1.25569
lfemur -14.9122 16.5697 -20.187
ltibia 34.0615
lfoot -18.8491 11.9105
ltoes -8.09661
542
root 7.84538 17.23 -16.5428 0.86433 -22.7006 3.34037
lowerback 14.5012 5.6501 4.13978
upperback 0.750183 8.04068 -1.52772
thorax -6.48528 3.78254 -5.48347
lowerneck -18.0073 -2.49506 -8.96599
upperneck 9.25717 -2.16558 7.17484
head 5.90426 -0.812745 3.53259
rclavicle 1.32987e-013 -2.06736e-014
rhumerus -4.72016 -13.0464 -44.5196
rradius 93.6271
rwrist -29.0278
rhand -22.9345 39.6917
rfingers 7.12502
rthumb 3.50637 9.74078
lclavicle 1.32987e-013 -2.06736e-014
lhumerus -48.0676 17.0388 75.8052
lradius 107.286
lwrist 11.5199
lhand -10.2647 27.3712
lfingers 7.12502
lthumb 15.7287 56.752
rfemur -21.0661 4.41766 14.3874
rtibia 36.3317
rfoot -14.488 0.723278
rtoes 2.75417
lfemur -12.7304 16.3931 -20.583
ltibia 33.7418
lfoot -19.2429 12.7225
ltoes -8.00164
543
root 7.80151 17.2129 -16.6313 1.77951 -20.8219 2.79852
lowerback 14.2831 5.11209 4.19503
upperback 0.356539 7.35903 -1.29529
thorax -6.88953 3.42647 -5.15794
lowerneck -17.9531 -2.60713 -9.12849
upperneck 9.1082 -2.27258 7.15006
head 5.85853 -0.87271 3.53835
rclavicle 3.90612e-014 -3.97569e-015
rhumerus -4.94553 -13.0661 -44.6998
rradius 94.5141
rwrist -28.3402
rhand -23.0112 39.3456
rfingers 7.12502
rthumb 3.4323 9.39345
lclavicle 3.90612e-014 -3.97569e-015
lhumerus -47.8374 16.4377 75.906
lradius 107.243
lwrist 10.8167
lhand -9.82532 26.675
lfingers 7.12502
lthumb 16.1519 56.022
rfemur -21.7611 3.48955 15.1876
rtibia 36.505
rfoot -14.3912 -0.216055
rtoes 3.44257
lfemur -13.886 15.9591 -19.9205
ltibia 33.4937
lfoot -18.5645 11.3738
ltoes -9.09226
